<?xml version="1.0" standalone="no"?>
<!DOCTYPE svg PUBLIC "-//W3C//DTD SVG 20010904//EN"
 "http://www.w3.org/TR/2001/REC-SVG-20010904/DTD/svg10.dtd">
<svg version="1.0" xmlns="http://www.w3.org/2000/svg"
 width="1024.000000pt" height="1024.000000pt" viewBox="0 0 1024.000000 1024.000000"
 preserveAspectRatio="xMidYMid meet">
<metadata>
Created by potrace 1.14, written by Peter Selinger 2001-2017
</metadata>
<g transform="translate(0.000000,1024.000000) scale(0.100000,-0.100000)"
fill="#000000" stroke="none">
<path d="M0 5120 l0 -5120 5120 0 5120 0 0 5120 0 5120 -5120 0 -5120 0 0
-5120z m4518 4088 l2 -198 203 -2 202 -3 3 -642 2 -643 -202 -2 -203 -3 -3
-192 -2 -193 202 -2 203 -3 3 -842 2 -843 -202 -2 -203 -3 -3 -198 -2 -197
-1618 2 -1617 3 -3 2077 -2 2077 32 4 c18 2 746 3 1618 3 l1585 -1 3 -197z
m1990 195 l42 -5 0 -1874 0 -1874 1123 -1 c617 -1 1129 -3 1137 -4 8 -1 50 -3
93 -4 l77 -1 -2 -197 -3 -198 -1617 -3 -1618 -2 0 2079 c0 1654 3 2080 13
2084 16 7 699 6 755 0z m-2588 -4843 l0 -200 203 -2 202 -3 3 -197 2 -198 198
-2 197 -3 3 -1277 2 -1278 -200 0 -200 0 0 -200 0 -200 -205 0 -205 0 0 -199
0 -198 -103 -7 c-103 -6 -1620 -5 -1819 2 l-108 3 -2 197 -3 197 -202 3 -203
2 0 200 0 200 -200 0 -200 0 2 1278 3 1277 198 3 197 2 0 200 0 200 205 0 205
0 0 200 0 200 1015 0 1015 0 0 -200z m4860 0 l0 -200 -122 -2 c-68 -1 -134 -2
-148 -3 -14 -1 -413 -2 -887 -3 l-863 -2 0 -200 0 -200 -205 0 -205 0 0 -1275
0 -1275 205 0 205 0 0 -200 0 -200 805 0 805 0 0 780 0 780 -427 2 c-236 1
-448 3 -473 4 -25 1 -80 2 -123 3 l-77 1 2 198 3 197 951 3 951 2 5 -592 c2
-326 2 -859 0 -1184 l-4 -591 -217 -6 c-281 -9 -2376 -9 -2514 0 l-107 6 0
199 0 198 -200 0 -200 0 -2 198 -3 197 -198 3 -197 2 2 1278 3 1277 198 3 197
2 0 200 0 200 200 0 200 0 0 193 c0 107 3 197 7 200 3 4 552 7 1220 7 l1213 0
0 -200z"/>
<path d="M2098 8993 c0 -5 -1 -290 -2 -635 l-1 -628 1013 0 1012 0 0 635 0
635 -1010 0 c-555 0 -1011 -3 -1012 -7z"/>
<path d="M2100 7313 c0 -5 -1 -380 -2 -836 l-3 -827 1013 0 1012 0 0 835 0
835 -1010 0 c-555 0 -1010 -3 -1010 -7z"/>
<path d="M2300 4150 l0 -200 -205 0 -205 0 0 -1275 0 -1275 205 0 205 0 0
-200 0 -200 600 0 600 0 0 200 0 200 209 0 210 0 -4 1233 c-3 677 -5 1251 -5
1274 l0 43 -202 2 -203 3 -3 198 -2 197 -600 0 -600 0 0 -200z"/>
</g>
</svg>
